<svg width="720" height="420" viewBox="0 0 720 420" fill="none" xmlns="http://www.w3.org/2000/svg">
  <rect width="720" height="420" rx="28" fill="#F7F1E6"/>
  <rect x="64" y="76" width="180" height="96" rx="24" fill="#C96E32" fill-opacity="0.14" stroke="#C96E32" stroke-width="2"/>
  <rect x="270" y="76" width="180" height="96" rx="24" fill="#3B82F6" fill-opacity="0.12" stroke="#3B82F6" stroke-width="2"/>
  <rect x="476" y="76" width="180" height="96" rx="24" fill="#10B981" fill-opacity="0.12" stroke="#10B981" stroke-width="2"/>
  <rect x="168" y="250" width="384" height="100" rx="28" fill="#1F2937" fill-opacity="0.06" stroke="#374151" stroke-width="2"/>
  <path d="M244 124H262" stroke="#7C4A24" stroke-width="6" stroke-linecap="round"/>
  <path d="M450 124H468" stroke="#2563EB" stroke-width="6" stroke-linecap="round"/>
  <path d="M360 172V228" stroke="#6B7280" stroke-width="6" stroke-linecap="round"/>
  <path d="M262 124L276 124" stroke="#7C4A24" stroke-width="6" stroke-linecap="round"/>
  <path d="M468 124L482 124" stroke="#2563EB" stroke-width="6" stroke-linecap="round"/>
  <path d="M360 228L360 242" stroke="#6B7280" stroke-width="6" stroke-linecap="round"/>
  <text x="95" y="115" fill="#5B3416" font-family="Segoe UI, sans-serif" font-size="22" font-weight="700">Obsidian</text>
  <text x="95" y="147" fill="#7A5A42" font-family="Segoe UI, sans-serif" font-size="16">Write in folders</text>
  <text x="301" y="115" fill="#1D4ED8" font-family="Segoe UI, sans-serif" font-size="22" font-weight="700">GitHub</text>
  <text x="301" y="147" fill="#4B5563" font-family="Segoe UI, sans-serif" font-size="16">Push once</text>
  <text x="516" y="115" fill="#047857" font-family="Segoe UI, sans-serif" font-size="22" font-weight="700">Vercel</text>
  <text x="516" y="147" fill="#4B5563" font-family="Segoe UI, sans-serif" font-size="16">Deploy automatically</text>
  <text x="250" y="295" fill="#111827" font-family="Segoe UI, sans-serif" font-size="24" font-weight="700">Published note site</text>
  <text x="232" y="328" fill="#4B5563" font-family="Segoe UI, sans-serif" font-size="16">Folder tree + date ordering + theme toggle</text>
</svg>
